<?xml version="1.0" standalone="no"?>
<!DOCTYPE svg PUBLIC "-//W3C//DTD SVG 20010904//EN"
 "http://www.w3.org/TR/2001/REC-SVG-20010904/DTD/svg10.dtd">
<svg version="1.0" xmlns="http://www.w3.org/2000/svg"
 width="200.000000pt" height="200.000000pt" viewBox="0 0 200.000000 200.000000"
 preserveAspectRatio="xMidYMid meet">

<g transform="translate(0.000000,200.000000) scale(0.100000,-0.100000)"
fill="#000000" stroke="none">
<path d="M0 1000 l0 -1000 1000 0 1000 0 0 1000 0 1000 -1000 0 -1000 0 0
-1000z m1254 814 l26 -27 0 -579 0 -580 -29 -29 c-51 -50 -131 -30 -151 39 -8
25 -10 212 -8 595 l3 559 28 24 c39 34 96 33 131 -2z m373 -338 l28 -24 3
-283 c2 -201 -1 -291 -9 -311 -25 -62 -117 -74 -159 -21 -19 25 -20 39 -20
315 l0 290 29 29 c38 37 88 39 128 5z m-762 -62 c14 -9 29 -32 35 -53 6 -22
10 -242 10 -574 0 -573 -1 -591 -48 -616 -37 -20 -91 -13 -117 14 l-25 24 0
585 0 584 31 26 c35 30 78 34 114 10z m-391 -218 c54 -23 57 -41 54 -355 l-3
-283 -28 -24 c-37 -32 -87 -32 -124 0 l-28 24 -3 283 c-3 311 0 332 52 355 39
17 40 17 80 0z"/>
<path d="M1136 1345 c-11 -48 -19 -596 -9 -640 9 -40 9 -40 60 -42 l51 -3 8
43 c9 47 8 385 -2 550 -5 82 -9 107 -20 107 -8 0 -14 -8 -14 -17 0 -15 -2 -16
-10 -3 -5 8 -10 11 -10 6 0 -6 -7 -1 -15 10 -14 19 -14 19 -15 -1 -1 -20 -1
-20 -9 0 -7 17 -9 16 -15 -10z"/>
<path d="M1605 1210 c-6 -8 -26 -16 -48 -16 -21 -1 -40 -4 -43 -7 -3 -3 -8
-75 -11 -159 l-6 -154 28 -22 c32 -25 60 -22 88 10 14 17 17 38 16 117 -2 152
-12 249 -24 231z"/>
<path d="M804 1371 c5 -7 5 -24 1 -38 l-6 -25 -19 22 c-18 21 -18 21 -26 -47
-11 -88 -11 -704 -1 -766 5 -26 12 -45 18 -42 5 4 9 0 9 -7 0 -9 3 -9 10 2 8
13 11 13 19 1 7 -11 10 -10 14 5 5 19 5 19 6 0 1 -16 4 -14 24 10 l22 29 -1
400 c0 221 -4 407 -8 413 -5 9 -13 9 -27 2 -16 -9 -19 -7 -19 14 0 14 -5 28
-12 32 -7 4 -8 3 -4 -5z"/>
<path d="M396 1155 c-17 -13 -21 -35 -28 -142 -12 -159 -2 -345 19 -370 8 -10
12 -13 9 -7 -6 13 76 13 85 0 19 -26 30 167 21 353 -7 134 -10 155 -27 167
-24 18 -55 17 -79 -1z"/>
</g>
</svg>
